<?xml version="1.0" encoding="UTF-8" standalone="no"?>
<svg
   xmlns:dc="http://purl.org/dc/elements/1.1/"
   xmlns:cc="http://creativecommons.org/ns#"
   xmlns:rdf="http://www.w3.org/1999/02/22-rdf-syntax-ns#"
   xmlns:svg="http://www.w3.org/2000/svg"
   xmlns="http://www.w3.org/2000/svg"
   xmlns:xlink="http://www.w3.org/1999/xlink"
   xmlns:sodipodi="http://sodipodi.sourceforge.net/DTD/sodipodi-0.dtd"
   xmlns:inkscape="http://www.inkscape.org/namespaces/inkscape"
   sodipodi:docname="circle.svg"
   inkscape:version="1.0 (4035a4f, 2020-05-01)"
   width="128.0px"
   height="128.0px"
   viewBox="0 0 128.0 128.0"
   version="1.1"
   id="SVGRoot">
  <defs
     id="defs1420">
    <pattern
       id="pattern5574"
       xlink:href="#Wavy"
       inkscape:collect="always" />
    <pattern
       inkscape:collect="always"
       patternUnits="userSpaceOnUse"
       width="30.066020"
       height="5.1805778"
       id="Wavy"
       inkscape:stockid="Wavy"
       inkscape:isstock="true">
      <path
         style="fill:#00ff00;stroke:none;"
         d="M 7.597,0.061 C 5.079,-0.187 2.656,0.302 -0.01,1.788 L -0.01,3.061 C 2.773,1.431 5.173,1.052 7.472,1.280 C 9.770,1.508 11.969,2.361 14.253,3.218 C 18.820,4.931 23.804,6.676 30.066,3.061 L 30.062,1.788 C 23.622,5.497 19.246,3.770 14.691,2.061 C 12.413,1.207 10.115,0.311 7.597,0.061 z "
         id="path3609" />
    </pattern>
  </defs>
  <sodipodi:namedview
     inkscape:window-maximized="0"
     inkscape:window-y="61"
     inkscape:window-x="2095"
     inkscape:window-height="1092"
     inkscape:window-width="1792"
     showgrid="false"
     inkscape:document-rotation="0"
     inkscape:current-layer="layer1"
     inkscape:document-units="px"
     inkscape:cy="92.763756"
     inkscape:cx="66.73058"
     inkscape:zoom="2.8284272"
     inkscape:pageshadow="2"
     inkscape:pageopacity="0.0"
     borderopacity="1.0"
     bordercolor="#666666"
     pagecolor="#ffffff"
     id="base">
    <inkscape:grid
       type="xygrid"
       id="grid1990" />
  </sodipodi:namedview>
  <metadata
     id="metadata1423">
    <rdf:RDF>
      <cc:Work
         rdf:about="">
        <dc:format>image/svg+xml</dc:format>
        <dc:type
           rdf:resource="http://purl.org/dc/dcmitype/StillImage" />
        <dc:title />
      </cc:Work>
    </rdf:RDF>
  </metadata>
  <g
     style="display:inline"
     id="layer1"
     inkscape:groupmode="layer"
     inkscape:label="Layer 1">
    <path
       id="path5531"
       style="fill:url(#pattern5574);fill-opacity:1;stroke:#00ff00;stroke-width:2;stop-color:#000000"
       d="m 93.344931,64 A 29.344931,29.344931 0 0 1 64,93.344931 29.344931,29.344931 0 0 1 34.65507,64 29.344931,29.344931 0 0 1 64,34.65507 29.344931,29.344931 0 0 1 93.344931,64 Z" />
  </g>
</svg>
