<?xml version="1.0" encoding="UTF-8" standalone="no"?>
<svg
   xmlns:dc="http://purl.org/dc/elements/1.1/"
   xmlns:cc="http://creativecommons.org/ns#"
   xmlns:rdf="http://www.w3.org/1999/02/22-rdf-syntax-ns#"
   xmlns:svg="http://www.w3.org/2000/svg"
   xmlns="http://www.w3.org/2000/svg"
   xmlns:sodipodi="http://sodipodi.sourceforge.net/DTD/sodipodi-0.dtd"
   xmlns:inkscape="http://www.inkscape.org/namespaces/inkscape"
   sodipodi:docname="dragon.svg"
   inkscape:version="1.0 (4035a4f, 2020-05-01)"
   width="128.0px"
   height="128.0px"
   viewBox="0 0 128.0 128.0"
   version="1.1"
   id="SVGRoot">
  <defs
     id="defs1420">
    <pattern
       inkscape:collect="always"
       patternUnits="userSpaceOnUse"
       width="30.066020"
       height="5.1805778"
       id="Wavy"
       inkscape:stockid="Wavy"
       inkscape:isstock="true">
      <path
         style="fill:#00ff00;stroke:none;"
         d="M 7.597,0.061 C 5.079,-0.187 2.656,0.302 -0.01,1.788 L -0.01,3.061 C 2.773,1.431 5.173,1.052 7.472,1.280 C 9.770,1.508 11.969,2.361 14.253,3.218 C 18.820,4.931 23.804,6.676 30.066,3.061 L 30.062,1.788 C 23.622,5.497 19.246,3.770 14.691,2.061 C 12.413,1.207 10.115,0.311 7.597,0.061 z "
         id="path3609" />
    </pattern>
  </defs>
  <sodipodi:namedview
     inkscape:window-maximized="0"
     inkscape:window-y="23"
     inkscape:window-x="0"
     inkscape:window-height="1314"
     inkscape:window-width="3440"
     showgrid="false"
     inkscape:document-rotation="0"
     inkscape:current-layer="layer1"
     inkscape:document-units="px"
     inkscape:cy="59.529738"
     inkscape:cx="-7.5156301"
     inkscape:zoom="1.4142136"
     inkscape:pageshadow="2"
     inkscape:pageopacity="0.0"
     borderopacity="1.0"
     bordercolor="#666666"
     pagecolor="#ffffff"
     id="base">
    <inkscape:grid
       type="xygrid"
       id="grid1990" />
  </sodipodi:namedview>
  <metadata
     id="metadata1423">
    <rdf:RDF>
      <cc:Work
         rdf:about="">
        <dc:format>image/svg+xml</dc:format>
        <dc:type
           rdf:resource="http://purl.org/dc/dcmitype/StillImage" />
        <dc:title></dc:title>
      </cc:Work>
    </rdf:RDF>
  </metadata>
  <g
     style="display:inline"
     id="layer1"
     inkscape:groupmode="layer"
     inkscape:label="Layer 1">
    <path
       id="path2013"
       d="m 59.895719,95.183322 c -5.784483,-0.58662 -10.624158,-2.80398 -14.441843,-6.6167 -3.466663,-3.462173 -5.517221,-7.700873 -6.31973,-13.063443 -0.217252,-1.45186 -0.21799,-5.41052 -0.0011,-6.82397 0.610308,-3.980185 2.03459,-7.566845 4.420415,-11.131585 2.510206,-3.75058 5.756067,-7.08764 11.226413,-11.54188 4.390601,-3.57506 5.961947,-4.96267 7.777118,-6.86778 1.933264,-2.02906 3.443395,-4.07435 4.273399,-5.78778 0.365484,-0.75448 0.473941,-0.77722 0.397527,-0.0833 -0.08468,0.76894 -0.373106,2.10362 -0.640829,2.96565 -0.654846,2.10835 -2.152729,5.38125 -3.76554,8.22776 -1.519308,2.6815 -1.947834,3.34942 -5.369021,8.3686 -3.575274,5.24522 -5.641462,10.76145 -6.413065,17.121335 -0.224245,1.84831 -0.223261,6.2205 0.0015,7.94432 0.696542,5.33557 2.48142,9.23524 5.697604,12.448323 2.392143,2.38982 4.890269,3.80183 8.176951,4.62185 l 0.266539,0.0666 -0.310971,0.0787 c -0.440667,0.11142 -4.072176,0.1651 -4.975474,0.0735 z m 10.52703,-0.62461 c -0.03105,-0.0501 0.06993,-0.13509 0.224261,-0.18896 1.147875,-0.40016 3.122404,-1.5982 4.17922,-2.53574 4.027453,-3.57291 5.758801,-8.180993 4.917364,-13.087903 -0.471698,-2.75076 -1.791688,-5.17479 -3.99146,-7.32993 -1.77117,-1.73521 -3.697702,-2.79546 -5.994313,-3.29892 -1.052052,-0.230635 -3.865543,-0.231445 -5.016677,-0.001 -1.229606,0.24567 -2.296104,0.62374 -3.542847,1.25593 -0.897442,0.45507 -1.225257,0.57846 -1.537043,0.57846 -1.611457,0 -2.093559,-1.79408 -1.575495,-5.863145 0.734195,-5.76648 4.148714,-12.06634 8.772981,-16.1863 4.206269,-3.74755 10.015265,-6.51303 15.140968,-7.20815 0.502588,-0.0682 0.930365,-0.0972 0.950571,-0.0644 0.02017,0.0327 -0.46349,0.47255 -1.074919,0.97742 -3.025136,2.49791 -5.065457,4.86679 -6.162125,7.15443 -0.846709,1.76624 -1.167715,3.11402 -1.163873,4.88662 0.0046,2.27063 0.615287,4.05539 2.04733,5.98678 1.030089,1.3893 2.107145,2.40797 5.199995,4.91808 0.879583,0.71387 1.900471,1.59091 2.268654,1.94897 2.175337,2.115605 3.6543,4.560795 4.428072,7.321005 0.724663,2.58506 0.728874,5.71912 0.01073,8.28576 -1.914687,6.846773 -8.450501,11.864473 -16.214553,12.448353 -1.551751,0.11665 -1.79679,0.11711 -1.86724,0.003 z"
       style="fill:url(#Wavy);fill-opacity:1.0;stroke:#00ff00;stroke-width:1.537;stroke-miterlimit:4;stroke-dasharray:none" />
  </g>
</svg>
