<?xml version="1.0" encoding="UTF-8" standalone="no"?>
<svg
   xmlns:dc="http://purl.org/dc/elements/1.1/"
   xmlns:cc="http://creativecommons.org/ns#"
   xmlns:rdf="http://www.w3.org/1999/02/22-rdf-syntax-ns#"
   xmlns:svg="http://www.w3.org/2000/svg"
   xmlns="http://www.w3.org/2000/svg"
   xmlns:sodipodi="http://sodipodi.sourceforge.net/DTD/sodipodi-0.dtd"
   xmlns:inkscape="http://www.inkscape.org/namespaces/inkscape"
   sodipodi:docname="microsoft.svg"
   inkscape:version="1.0 (4035a4f, 2020-05-01)"
   id="SVGRoot"
   version="1.1"
   viewBox="0 0 128.0 128.0"
   height="128.0px"
   width="128.0px">
  <defs
     id="defs4373">
    <pattern
       inkscape:collect="always"
       patternUnits="userSpaceOnUse"
       width="30.066020"
       height="5.1805778"
       id="Wavy"
       inkscape:stockid="Wavy"
       inkscape:isstock="true">
      <path
         style="fill:#00ff00;stroke:none;"
         d="M 7.597,0.061 C 5.079,-0.187 2.656,0.302 -0.01,1.788 L -0.01,3.061 C 2.773,1.431 5.173,1.052 7.472,1.280 C 9.770,1.508 11.969,2.361 14.253,3.218 C 18.820,4.931 23.804,6.676 30.066,3.061 L 30.062,1.788 C 23.622,5.497 19.246,3.770 14.691,2.061 C 12.413,1.207 10.115,0.311 7.597,0.061 z "
         id="path3609" />
    </pattern>
  </defs>
  <sodipodi:namedview
     inkscape:window-maximized="0"
     inkscape:window-y="65"
     inkscape:window-x="671"
     inkscape:window-height="1207"
     inkscape:window-width="1987"
     showgrid="false"
     inkscape:document-rotation="0"
     inkscape:current-layer="layer1"
     inkscape:document-units="px"
     inkscape:cy="5.4262526"
     inkscape:cx="93.923779"
     inkscape:zoom="3.959798"
     inkscape:pageshadow="2"
     inkscape:pageopacity="0.0"
     borderopacity="1.0"
     bordercolor="#666666"
     pagecolor="#ffffff"
     id="base">
    <inkscape:grid
       type="xygrid"
       id="grid4943" />
  </sodipodi:namedview>
  <metadata
     id="metadata4376">
    <rdf:RDF>
      <cc:Work
         rdf:about="">
        <dc:format>image/svg+xml</dc:format>
        <dc:type
           rdf:resource="http://purl.org/dc/dcmitype/StillImage" />
        <dc:title></dc:title>
      </cc:Work>
    </rdf:RDF>
  </metadata>
  <g
     id="layer1"
     inkscape:groupmode="layer"
     inkscape:label="Layer 1">
    <path
       style="fill:url(#Wavy);stroke-width:1.1;fill-opacity:1;stroke:#00ff00;stroke-miterlimit:4;stroke-dasharray:none"
       d="m 72.79032,94.774548 c -0.57985,-0.87887 -1.8259,-2.33745 -2.68449,-3.14236 -3.91889,-3.67391 -8.98485,-6.10412 -14.83052,-7.11441 -0.67282,-0.11628 -1.22331,-0.2403 -1.22331,-0.27559 0,-0.0557 10.33484,-18.699666 10.41514,-18.788806 0.0493,-0.0547 1.90936,0.27125 3.30514,0.57912 1.6074,0.35455 4.31656,1.24713 5.75451,1.89592 4.21494,1.90173 7.65581,4.724526 9.64046,7.908776 l 0.45427,0.72885 -0.37729,0.69698 c -0.20752,0.38334 -2.14698,3.91357 -4.30992,7.84496 -2.16293,3.93139 -4.31688,7.84959 -4.78655,8.7071 -0.46966,0.85752 -0.8782,1.55913 -0.90787,1.55913 -0.0297,0 -0.23197,-0.26985 -0.44957,-0.59967 z M 49.5905,83.601618 c -4.10677,-0.54835 -8.5681,-2.14203 -11.52984,-4.11869 -2.50757,-1.67354 -4.63513,-3.86042 -5.72125,-5.88075 L 32,72.970818 37.11958,63.761912 c 2.81577,-5.0649 5.15455,-9.21898 5.19728,-9.23129 0.0427,-0.0123 0.31432,0.33223 0.60354,0.76565 0.66866,1.00207 2.91256,3.26743 4.12753,4.16701 3.35109,2.48116 7.6493,4.2454 12.20845,5.01104 0.64681,0.10863 1.29476,0.20684 1.43988,0.21826 0.14512,0.0114 0.26385,0.0318 0.26385,0.0454 0,0.0467 -3.62798,6.612926 -5.82112,10.535576 -1.20965,2.16359 -2.75589,4.93763 -3.43608,6.16454 -1.36833,2.46813 -1.19107,2.28658 -2.11241,2.16356 z m 35.54161,-11.03857 c -0.64927,-0.90554 -2.0609,-2.46067 -3.01857,-3.325406 -3.47305,-3.13604 -7.59278,-5.28098 -12.61848,-6.56983 -0.81561,-0.20916 -1.79291,-0.43314 -2.17179,-0.49774 -0.37888,-0.0646 -0.73537,-0.14619 -0.79219,-0.1813 -0.0639,-0.0395 1.82306,-3.53833 4.94694,-9.17267 2.77764,-5.00985 5.06525,-9.12582 5.08358,-9.1466 0.0681,-0.0772 2.05021,0.19526 3.4002,0.46746 4.07053,0.82076 7.85705,2.48541 11.01113,4.84075 1.84702,1.37927 3.72156,3.23042 4.68556,4.62706 L 96,54.099552 l -5.21277,9.45962 c -2.86703,5.20279 -5.23878,9.459616 -5.27056,9.459616 -0.0318,0 -0.20484,-0.20508 -0.38456,-0.45574 z m -22.879,-10.965506 c -0.0383,-0.0619 -0.21131,-0.0939 -0.39285,-0.0727 -0.17846,0.0208 -0.32447,0.003 -0.32447,-0.0388 0,-0.0422 -0.11874,-0.0772 -0.26386,-0.0778 -0.29641,-0.001 -2.27281,-0.38604 -3.20408,-0.62379 -5.9842,-1.5278 -10.95459,-5.02488 -13.02777,-9.16612 l -0.48991,-0.97862 0.22105,-0.39592 c 0.12157,-0.21776 2.37276,-4.27095 5.00265,-9.00708 2.62988,-4.73614 4.80865,-8.61106 4.84169,-8.61093 0.0331,10e-5 0.17969,0.2268 0.32588,0.50372 0.40002,0.75773 1.43868,2.10137 2.41406,3.1229 2.59462,2.71736 6.14009,4.86061 9.79313,5.91997 1.70522,0.49451 4.51529,1.00725 5.52019,1.00725 0.20927,0 0.37747,0.0324 0.37377,0.0719 -0.004,0.0396 -2.3028,4.19524 -5.10913,9.23481 -4.62913,8.31295 -5.12604,9.16558 -5.35719,9.19233 -0.14014,0.0162 -0.28556,-0.0203 -0.32316,-0.0811 z"
       id="path4362" />
  </g>
</svg>
