<?xml version="1.0" encoding="UTF-8" standalone="no"?>
<svg
   xmlns:dc="http://purl.org/dc/elements/1.1/"
   xmlns:cc="http://creativecommons.org/ns#"
   xmlns:rdf="http://www.w3.org/1999/02/22-rdf-syntax-ns#"
   xmlns:svg="http://www.w3.org/2000/svg"
   xmlns="http://www.w3.org/2000/svg"
   xmlns:xlink="http://www.w3.org/1999/xlink"
   xmlns:sodipodi="http://sodipodi.sourceforge.net/DTD/sodipodi-0.dtd"
   xmlns:inkscape="http://www.inkscape.org/namespaces/inkscape"
   inkscape:version="1.0 (4035a4f, 2020-05-01)"
   sodipodi:docname="nuance.svg"
   width="128.0px"
   height="128.0px"
   viewBox="0 0 128.0 128.0"
   version="1.1"
   id="SVGRoot">
  <defs
     id="defs5691">
    <pattern
       patternTransform="matrix(0.9132689,-0.27274138,0.27261775,0.91285494,-11.896745,23.032732)"
       id="pattern6990"
       xlink:href="#Wavy"
       inkscape:collect="always" />
    <pattern
       inkscape:collect="always"
       patternUnits="userSpaceOnUse"
       width="30.066020"
       height="5.1805778"
       id="Wavy"
       inkscape:stockid="Wavy"
       inkscape:isstock="true">
      <path
         style="fill:#00ff00;stroke:none;"
         d="M 7.597,0.061 C 5.079,-0.187 2.656,0.302 -0.01,1.788 L -0.01,3.061 C 2.773,1.431 5.173,1.052 7.472,1.280 C 9.770,1.508 11.969,2.361 14.253,3.218 C 18.820,4.931 23.804,6.676 30.066,3.061 L 30.062,1.788 C 23.622,5.497 19.246,3.770 14.691,2.061 C 12.413,1.207 10.115,0.311 7.597,0.061 z "
         id="path3609" />
    </pattern>
  </defs>
  <sodipodi:namedview
     inkscape:window-maximized="0"
     inkscape:window-y="23"
     inkscape:window-x="0"
     inkscape:window-height="1314"
     inkscape:window-width="3440"
     showgrid="false"
     inkscape:document-rotation="0"
     inkscape:current-layer="layer1"
     inkscape:document-units="px"
     inkscape:cy="160.98974"
     inkscape:cx="-67.195552"
     inkscape:zoom="1.979899"
     inkscape:pageshadow="2"
     inkscape:pageopacity="0.0"
     borderopacity="1.0"
     bordercolor="#666666"
     pagecolor="#ffffff"
     id="base">
    <inkscape:grid
       type="xygrid"
       id="grid6261" />
  </sodipodi:namedview>
  <metadata
     id="metadata5694">
    <rdf:RDF>
      <cc:Work
         rdf:about="">
        <dc:format>image/svg+xml</dc:format>
        <dc:type
           rdf:resource="http://purl.org/dc/dcmitype/StillImage" />
      </cc:Work>
    </rdf:RDF>
  </metadata>
  <g
     id="layer1"
     inkscape:groupmode="layer"
     inkscape:label="Layer 1">
    <path
       d="m 31.877194,54.876967 c -1.233895,0.368495 -1.961793,1.577214 -1.627729,2.695821 l 4.22982,14.163465 c 0.334506,1.120086 1.606297,1.732584 2.840193,1.364089 l 14.59274,-4.35802 -2.824481,-9.463308 8.11e-4,-2.42e-4 c 7.444499,-2.223248 18.835725,1.870476 18.835725,1.870476 l -0.210688,-0.705487 c 0,0 -13.58871,-12.210908 -30.601747,-7.130083 z m 44.210007,4.381745 2.824481,9.463309 C 71.466882,70.945358 60.0773,66.850282 60.0773,66.850282 l 0.211396,0.707857 c 0,0 13.587409,12.208715 30.598667,7.128421 l 5.233862,-1.563056 c 1.234197,-0.368585 1.963225,-1.578184 1.629074,-2.697083 l -4.22982,-14.163465 c -0.334771,-1.120974 -1.607105,-1.73062 -2.841302,-1.362036 z"
       style="fill:url(#pattern6990);fill-opacity:1;fill-rule:nonzero;stroke:#00ff00;stroke-width:0.85395"
       id="path11" />
  </g>
</svg>
